<?xml version="1.0" standalone="no"?>
<!DOCTYPE svg PUBLIC "-//W3C//DTD SVG 20010904//EN"
 "http://www.w3.org/TR/2001/REC-SVG-20010904/DTD/svg10.dtd">
<svg version="1.0" xmlns="http://www.w3.org/2000/svg"
 width="256.000000pt" height="256.000000pt" viewBox="0 0 256.000000 256.000000"
 preserveAspectRatio="xMidYMid meet">
<metadata>
Created by potrace 1.11, written by Peter Selinger 2001-2013
</metadata>
<g transform="translate(0.000000,256.000000) scale(0.100000,-0.100000)"
fill="#000000" stroke="none">
<path d="M2270 2090 c-19 -4 -51 -16 -70 -27 -19 -11 -208 -118 -420 -238
-212 -119 -431 -243 -487 -276 l-103 -58 -62 23 c-108 41 -201 56 -338 56
-115 0 -162 -5 -259 -31 -152 -41 -257 -112 -306 -209 -24 -47 -25 -58 -25
-220 l0 -170 -46 -28 c-124 -72 -160 -120 -126 -162 25 -30 58 -32 114 -8 27
11 50 19 52 17 2 -2 6 -70 8 -151 l3 -146 -80 -33 c-118 -48 -152 -92 -104
-140 26 -26 55 -23 181 20 l98 33 27 -20 c73 -51 188 -95 288 -110 28 -4 115
-7 195 -6 152 0 247 17 350 63 101 45 182 123 209 200 6 19 11 82 11 142 l0
107 43 15 c79 28 482 168 592 207 61 21 184 64 275 95 91 31 180 63 198 71 40
18 62 51 68 101 9 71 -62 141 -130 130 -24 -4 -1058 -409 -1141 -447 -11 -5
-60 -24 -110 -43 -49 -20 -256 -101 -460 -182 -450 -179 -415 -166 -415 -160
0 3 10 10 23 15 12 5 40 21 62 35 22 14 47 28 55 32 8 4 58 32 110 63 52 31
260 153 463 270 l367 214 0 66 c-1 36 -7 83 -15 105 -13 36 -13 41 3 50 9 5
237 122 507 258 303 154 498 258 512 274 74 89 -4 224 -117 203z m-1360 -695
c152 -17 300 -95 300 -158 0 -57 -108 -123 -245 -152 -75 -15 -239 -21 -300
-10 -172 30 -295 97 -295 161 0 68 152 144 320 160 36 4 66 7 67 8 4 3 92 -2
153 -9z"/>
<path d="M722 1306 c-47 -12 -92 -46 -92 -69 0 -24 49 -64 88 -73 90 -19 209
8 226 52 25 66 -105 119 -222 90z"/>
</g>
</svg>
